<svg xmlns="http://www.w3.org/2000/svg" width="960" height="640" viewBox="0 0 960 640">
  <defs>
    <linearGradient id="g" x1="0" y1="0" x2="1" y2="1">
      <stop offset="0" stop-color="#FFF7E9"/>
      <stop offset="1" stop-color="#F0E7D8"/>
    </linearGradient>
    <radialGradient id="rg" cx="30%" cy="20%" r="70%">
      <stop offset="0" stop-color="#F2A65A" stop-opacity="0.35"/>
      <stop offset="1" stop-color="#111214" stop-opacity="0"/>
    </radialGradient>
    <filter id="shadow" x="-20%" y="-20%" width="140%" height="140%">
      <feDropShadow dx="0" dy="16" stdDeviation="22" flood-color="#111214" flood-opacity="0.18"/>
    </filter>
  </defs>
  <rect width="960" height="640" rx="48" fill="url(#g)"/>
  <rect width="960" height="640" rx="48" fill="url(#rg)"/>

  <g filter="url(#shadow)">
    <rect x="64" y="72" width="832" height="496" rx="36" fill="#fffaf2" stroke="#111214" stroke-opacity="0.12"/>
  </g>

  <g>
    <text x="112" y="168" font-family="ui-sans-serif, system-ui, -apple-system, Segoe UI, Roboto, Helvetica, Arial" font-size="18" font-weight="900" fill="#111214" opacity="0.70">Vendora • demo</text>
    <text x="112" y="232" font-family="ui-sans-serif, system-ui, -apple-system, Segoe UI, Roboto, Helvetica, Arial" font-size="44" font-weight="950" fill="#111214">California</text>

    <text x="112" y="280" font-family="ui-sans-serif, system-ui, -apple-system, Segoe UI, Roboto, Helvetica, Arial" font-size="20" font-weight="700" fill="#555a63">Crab mix • avocado • masago</text>

    <g>
      <rect x="112" y="320" width="220" height="36" rx="18" fill="#F2A65A" opacity="0.18"/>
      <text x="128" y="345" font-family="ui-sans-serif, system-ui, -apple-system, Segoe UI, Roboto, Helvetica, Arial" font-size="14" font-weight="900" fill="#111214">crunchy</text>
    </g>

    <g opacity="0.9">
      <circle cx="760" cy="356" r="84" fill="#F2A65A" opacity="0.16"/>
      <circle cx="812" cy="392" r="108" fill="#111214" opacity="0.06"/>
      <circle cx="708" cy="410" r="60" fill="#111214" opacity="0.04"/>
      <path d="M650 470 C690 420, 720 440, 760 410 C805 375, 850 395, 874 360" fill="none" stroke="#111214" stroke-opacity="0.18" stroke-width="10" stroke-linecap="round"/>
    </g>

    <text x="112" y="528" font-family="ui-sans-serif, system-ui, -apple-system, Segoe UI, Roboto, Helvetica, Arial" font-size="14" font-weight="800" fill="#555a63">Demo image • replace with real photos in production</text>
  </g>
</svg>
